<svg width="64" height="64" viewBox="0 0 64 64" fill="none" xmlns="http://www.w3.org/2000/svg">
<path fill-rule="evenodd" clip-rule="evenodd" d="M2 16C2 8.26801 8.26801 2 16 2H48C55.732 2 62 8.26801 62 16V32C62 33.1046 61.1046 34 60 34C58.8954 34 58 33.1046 58 32V21H6V48C6 53.5228 10.4772 58 16 58H32C33.1046 58 34 58.8954 34 60C34 61.1046 33.1046 62 32 62H16C8.26801 62 2 55.732 2 48V16ZM13 12C13 10.8954 13.8954 10 15 10H17C18.1046 10 19 10.8954 19 12C19 13.1046 18.1046 14 17 14H15C13.8954 14 13 13.1046 13 12Z" fill="white"/>
<path d="M49.9502 35.5565C49.7432 34.6461 48.9337 34 48 34C47.0663 34 46.2568 34.6461 46.0498 35.5565L44.9432 40.4229C44.4314 42.6738 42.6738 44.4314 40.4229 44.9432L35.5565 46.0498C34.6461 46.2568 34 47.0663 34 48C34 48.9337 34.6461 49.7432 35.5565 49.9502L40.4229 51.0568C42.6738 51.5686 44.4314 53.3262 44.9432 55.5771L46.0498 60.4435C46.2568 61.3539 47.0663 62 48 62C48.9337 62 49.7432 61.3539 49.9502 60.4435L51.0568 55.5771C51.5686 53.3262 53.3262 51.5686 55.5771 51.0568L60.4435 49.9502C61.3539 49.7432 62 48.9337 62 48C62 47.0663 61.3539 46.2568 60.4435 46.0498L55.5771 44.9432C53.3262 44.4314 51.5686 42.6738 51.0568 40.4229L49.9502 35.5565Z" fill="#00A4A6"/>
</svg>
