<svg width="17" height="16" viewBox="0 0 17 16" fill="none" xmlns="http://www.w3.org/2000/svg">
<g id="Facebook Logo" clip-path="url(#clip0_1014_286)">
<path id="path14" d="M16.1667 8.04659C16.1667 3.8124 12.7342 0.37992 8.50004 0.37992C4.26585 0.37992 0.833374 3.8124 0.833374 8.04659C0.833374 11.8732 3.63696 15.045 7.30212 15.6201V10.2627H5.35551V8.04659H7.30212V6.35752C7.30212 4.43607 8.4467 3.37471 10.1979 3.37471C11.0367 3.37471 11.9141 3.52445 11.9141 3.52445V5.41117H10.9474C9.99497 5.41117 9.69796 6.00215 9.69796 6.60844V8.04659H11.8243L11.4844 10.2627H9.69796V15.6201C13.3631 15.045 16.1667 11.8732 16.1667 8.04659Z" fill="#1877F2"/>
</g>
<defs>
<clipPath id="clip0_1014_286">
<rect width="16" height="16" fill="white" transform="translate(0.5)"/>
</clipPath>
</defs>
</svg>
