<svg xmlns="http://www.w3.org/2000/svg" viewBox="0 0 6.35 6.35" id="Import"><path style="line-height:normal;font-variant-ligatures:normal;font-variant-position:normal;font-variant-caps:normal;font-variant-numeric:normal;font-variant-alternates:normal;font-feature-settings:normal;text-indent:0;text-align:start;text-decoration-line:none;text-decoration-style:solid;text-decoration-color:#000;text-transform:none;text-orientation:mixed;shape-padding:0;isolation:auto;mix-blend-mode:normal" d="M2.929 291.18a.264.265 0 0 1-.025.529H1.057v4.233h1.847a.264.265 0 1 1 0 .529H.792a.264.265 0 0 1-.263-.264v-4.764a.264.265 0 0 1 .263-.264h2.112a.264.265 0 0 1 .025 0zm.507 1.322a.264.265 0 0 1 .259.266v.792h1.849a.264.265 0 0 1 .025 0 .264.265 0 0 1-.025.53h-1.85v.793a.264.265 0 0 1-.408.22l-1.584-1.058a.264.265 0 0 1 0-.44l1.584-1.058a.264.265 0 0 1 .15-.045zm-.27.76-.843.562.844.565z" color="#000" font-family="sans-serif" font-weight="400" overflow="visible" transform="translate(0 -290.65)" fill="#14211c" class="color000000 svgShape"></path></svg>