<svg width="102" height="102" viewBox="0 0 102 102" fill="none" xmlns="http://www.w3.org/2000/svg">
<rect width="102" height="102" rx="10" fill="#F9B3FF"/>
<path d="M32.305 61.0052C32.5877 61.0055 32.8677 60.95 33.1289 60.8418C33.3901 60.7336 33.6274 60.5749 33.8271 60.3747L45.9375 48.2642L50.8729 53.1998C51.0728 53.3996 51.3101 53.5582 51.5712 53.6664C51.8324 53.7746 52.1123 53.8302 52.395 53.8302C52.6776 53.8302 52.9576 53.7746 53.2187 53.6664C53.4799 53.5582 53.7172 53.3996 53.9171 53.1998L67.4617 39.6552L67.4608 44.5027C67.4608 45.0735 67.6876 45.621 68.0913 46.0247C68.495 46.4284 69.0425 46.6552 69.6133 46.6552C70.1842 46.6552 70.7317 46.4284 71.1354 46.0247C71.5391 45.621 71.7658 45.0735 71.7658 44.5027L71.7675 34.4577C71.7675 33.8868 71.5407 33.3393 71.137 32.9356C70.7333 32.532 70.1858 32.3052 69.615 32.3052H59.57C58.9991 32.3052 58.4516 32.532 58.0479 32.9356C57.6442 33.3393 57.4175 33.8868 57.4175 34.4577C57.4175 35.0286 57.6442 35.576 58.0479 35.9797C58.4516 36.3834 58.9991 36.6102 59.57 36.6102H64.4184L52.395 48.6336L47.4596 43.6981C47.2597 43.4982 47.0224 43.3396 46.7612 43.2315C46.5001 43.1233 46.2202 43.0676 45.9375 43.0676C45.6548 43.0676 45.3749 43.1233 45.1137 43.2315C44.8526 43.3396 44.6153 43.4982 44.4154 43.6981L30.7829 57.3306C30.4818 57.6316 30.2768 58.0152 30.1938 58.4327C30.1107 58.8503 30.1533 59.2831 30.3163 59.6764C30.4792 60.0697 30.7551 60.4059 31.1091 60.6424C31.4631 60.8789 31.8792 61.0052 32.305 61.0052Z" fill="white"/>
<path d="M69.6149 65.3101H32.305C31.7341 65.3101 31.1866 65.5368 30.7829 65.9405C30.3792 66.3442 30.1525 66.8917 30.1525 67.4626C30.1525 68.0334 30.3792 68.5809 30.7829 68.9846C31.1866 69.3883 31.7341 69.6151 32.305 69.6151H69.6149C70.1858 69.6151 70.7333 69.3883 71.137 68.9846C71.5407 68.5809 71.7674 68.0334 71.7674 67.4626C71.7674 66.8917 71.5407 66.3442 71.137 65.9405C70.7333 65.5368 70.1858 65.3101 69.6149 65.3101Z" fill="white"/>
</svg>
