<svg width="331" height="220" viewBox="0 0 331 220" fill="none" xmlns="http://www.w3.org/2000/svg">
<g clip-path="url(#clip0_154_1488)">
<path d="M118.73 126.612C130.074 106.655 151.711 91.3316 174.617 92.8078C157.721 111.183 147.869 134.944 146.803 159.885C146.427 169.505 147.01 180.245 140.624 187.448C136.65 191.93 130.575 194.101 124.603 194.557C118.63 195.012 112.659 193.933 106.766 192.858L105.337 193.297C104.793 170.347 107.387 146.569 118.73 126.612Z" fill="#F0F0F0"/>
<path d="M174.651 93.2883C157.713 101.443 143.27 115.063 134.403 131.674C132.487 135.265 130.855 139.075 130.143 143.103C129.431 147.133 129.928 150.969 131.304 154.797C132.563 158.296 134.255 161.73 134.641 165.474C135.047 169.42 133.595 173.11 130.982 176.039C127.784 179.622 123.49 181.843 119.215 183.868C114.468 186.117 109.502 188.378 106.14 192.575C105.733 193.084 104.968 192.422 105.374 191.914C111.224 184.611 121.236 183.239 128.179 177.356C131.419 174.611 133.851 170.873 133.697 166.494C133.563 162.664 131.821 159.121 130.517 155.589C129.147 151.881 128.464 148.152 128.955 144.198C129.457 140.153 130.944 136.271 132.761 132.647C136.858 124.473 142.464 116.969 148.887 110.482C156.269 103.025 164.872 96.8862 174.323 92.3309C174.908 92.0491 175.232 93.0084 174.651 93.2883Z" fill="white"/>
<path d="M137 126.123C134.404 124.224 132.566 121.463 131.817 118.335C131.067 115.206 131.454 111.913 132.908 109.043C133.204 108.463 134.119 108.897 133.822 109.477C132.463 112.147 132.103 115.215 132.807 118.127C133.511 121.038 135.233 123.603 137.661 125.357C138.189 125.738 137.525 126.502 137 126.123Z" fill="white"/>
<path d="M130.433 153.107C136.939 152.156 142.849 148.787 146.982 143.672C147.391 143.165 148.157 143.827 147.748 144.333C143.437 149.648 137.28 153.141 130.507 154.116C129.861 154.208 129.791 153.198 130.433 153.107Z" fill="white"/>
<path d="M156.768 104.27C157.62 105.214 158.693 105.932 159.89 106.359C161.088 106.786 162.373 106.909 163.629 106.716C164.273 106.616 164.343 107.625 163.703 107.725C162.314 107.931 160.895 107.794 159.571 107.325C158.247 106.856 157.058 106.07 156.107 105.036C156.009 104.946 155.95 104.822 155.94 104.689C155.93 104.557 155.971 104.426 156.055 104.322C156.143 104.221 156.267 104.159 156.401 104.149C156.534 104.14 156.666 104.183 156.768 104.27Z" fill="white"/>
<path d="M220.191 155.764C219.791 155.838 219.39 155.913 218.986 155.995C213.608 157.021 208.322 158.482 203.18 160.365C202.78 160.504 202.377 160.651 201.982 160.801C189.642 165.468 178.277 172.386 168.462 181.202C164.56 184.714 160.931 188.518 157.606 192.581C153.014 198.192 148.481 204.641 142.481 208.299C141.859 208.688 141.214 209.037 140.549 209.346L105.983 195.007C105.92 194.935 105.855 194.871 105.792 194.798L104.386 194.289C104.543 194.067 104.71 193.841 104.867 193.62C104.957 193.491 105.056 193.365 105.146 193.236C105.209 193.151 105.272 193.067 105.324 192.986C105.344 192.958 105.366 192.93 105.383 192.909C105.435 192.829 105.491 192.76 105.54 192.688C106.472 191.42 107.415 190.156 108.369 188.897C108.372 188.889 108.372 188.889 108.383 188.885C115.673 179.309 123.827 170.257 133.095 162.731C133.374 162.505 133.656 162.27 133.95 162.051C138.147 158.681 142.612 155.661 147.3 153.019C149.872 151.581 152.515 150.274 155.219 149.103C162.212 146.091 169.635 144.197 177.215 143.492C192.328 142.089 207.722 145.535 219.313 155.03C219.609 155.273 219.898 155.513 220.191 155.764Z" fill="#F0F0F0"/>
<path d="M219.931 156.171C201.498 152.483 181.767 154.661 164.688 162.585C160.996 164.298 157.399 166.357 154.406 169.145C151.411 171.934 149.499 175.296 148.294 179.181C147.192 182.733 146.476 186.493 144.53 189.715C142.479 193.111 139.098 195.183 135.248 195.948C130.538 196.883 125.773 196.07 121.14 195.113C115.996 194.051 110.67 192.865 105.459 194.192C104.828 194.353 104.615 193.364 105.246 193.203C114.312 190.895 123.133 195.828 132.218 195.312C136.457 195.071 140.649 193.551 143.163 189.961C145.362 186.822 146.103 182.945 147.188 179.34C148.327 175.554 150.026 172.165 152.799 169.304C155.635 166.377 159.158 164.172 162.791 162.372C170.982 158.313 179.977 155.697 189.01 154.385C199.393 152.876 209.957 153.155 220.246 155.209C220.883 155.336 220.564 156.297 219.931 156.171Z" fill="white"/>
<path d="M170.104 159.716C169.174 156.636 169.368 153.326 170.653 150.377C171.938 147.427 174.229 145.031 177.118 143.615C177.703 143.331 178.173 144.227 177.587 144.512C174.894 145.825 172.76 148.058 171.569 150.807C170.379 153.556 170.209 156.64 171.093 159.503C171.284 160.125 170.294 160.335 170.104 159.716Z" fill="white"/>
<path d="M148.615 177.307C154.383 180.465 161.129 181.334 167.509 179.739C168.141 179.581 168.353 180.57 167.722 180.728C161.08 182.375 154.062 181.457 148.067 178.157C147.496 177.842 148.047 176.993 148.615 177.307Z" fill="white"/>
<path d="M199.043 154.171C199.155 155.438 199.579 156.657 200.278 157.719C200.978 158.781 201.929 159.653 203.049 160.256C203.624 160.564 203.072 161.412 202.5 161.106C201.267 160.434 200.217 159.47 199.442 158.298C198.667 157.127 198.19 155.783 198.054 154.385C198.031 154.254 198.057 154.119 198.129 154.008C198.201 153.896 198.313 153.816 198.442 153.784C198.573 153.756 198.71 153.781 198.822 153.854C198.935 153.926 199.014 154.041 199.043 154.171Z" fill="white"/>
<path d="M154.345 179.422C149.504 156.012 143.452 148.207 143.452 148.207L141.141 146.414L138.361 144.254L138.374 143.977L137.715 143.753L137.56 143.632L137.306 143.437L137.265 143.481L137.179 143.57L124.599 139.294L108.64 133.872L101.249 124.265C100.046 122.7 98.496 121.436 96.7219 120.57C94.9478 119.705 92.9974 119.262 91.0235 119.277L67.4211 119.451C64.2298 119.475 61.1627 120.692 58.8229 122.862L43.3094 137.254L19.1364 148.8L19.0956 148.759L18.8417 148.941L15.1068 150.727L15.2609 151.529L12.9492 153.197C12.9492 153.197 6.89804 160.46 2.05708 182.242C0.825596 187.785 0.219414 199.674 0.000614872 214.325C-0.0103754 215.066 0.126064 215.802 0.401995 216.49C0.677927 217.178 1.08785 217.804 1.60792 218.332C2.128 218.86 2.74785 219.279 3.43144 219.566C4.11503 219.852 4.84871 220 5.58984 220H134.703L150.818 220C151.558 220 152.291 219.852 152.975 219.566C153.658 219.28 154.277 218.861 154.797 218.334C155.317 217.806 155.727 217.181 156.004 216.494C156.28 215.806 156.417 215.071 156.407 214.331C156.193 198.388 155.587 185.432 154.345 179.422Z" fill="#3F3D56"/>
<path d="M170.91 20.4152C165.887 20.4152 161.069 22.4109 157.517 25.9633C153.965 29.5157 151.97 34.3338 151.97 39.3577C151.97 44.3816 153.965 49.1997 157.517 52.7521C161.069 56.3045 165.887 58.3002 170.91 58.3002H312.059C317.083 58.3002 321.9 56.3045 325.452 52.7521C329.004 49.1997 331 44.3816 331 39.3577C331 34.3338 329.004 29.5157 325.452 25.9633C321.9 22.4109 317.083 20.4152 312.059 20.4152H170.91Z" fill="#E5E5E5"/>
<path d="M170.911 24.2488C166.904 24.2488 163.062 25.8406 160.228 28.6741C157.395 31.5076 155.804 35.3506 155.804 39.3577C155.804 43.3649 157.395 47.2079 160.228 50.0413C163.062 52.8748 166.904 54.4667 170.911 54.4667H312.06C316.067 54.4666 319.909 52.8748 322.742 50.0413C325.576 47.2079 327.167 43.3649 327.167 39.3577C327.167 35.3506 325.576 31.5076 322.742 28.6741C319.909 25.8406 316.067 24.2488 312.06 24.2488H170.911Z" fill="white"/>
<path d="M82.9293 110.408C100.007 110.408 113.851 96.5627 113.851 79.4832C113.851 62.4036 100.007 48.5578 82.9293 48.5578C65.8518 48.5578 52.0078 62.4036 52.0078 79.4832C52.0078 96.5627 65.8518 110.408 82.9293 110.408Z" fill="#9E616A"/>
<path d="M75.0182 108.894C74.8861 108.603 74.7544 108.311 74.623 108.019C74.6737 108.02 74.7238 108.027 74.7744 108.029L75.0182 108.894Z" fill="#2F2E41"/>
<path d="M51.1474 49.9642C52.7114 48.7164 54.5392 47.5684 56.5388 47.6329C58.5382 47.6974 60.5659 49.5035 60.1516 51.461C63.8243 44.9573 69.6702 39.9553 76.663 37.3328C83.6559 34.7103 91.3489 34.635 98.3917 37.1202C103.361 38.8737 108.235 42.3818 109.376 47.5271C109.669 48.848 109.732 50.2962 110.557 51.3688C111.597 52.7211 113.586 53.027 115.224 52.5513C115.24 52.5465 115.257 52.5417 115.273 52.5368C115.55 52.4423 115.848 52.433 116.13 52.5102C116.412 52.5873 116.665 52.7473 116.855 52.9694C117.045 53.1916 117.164 53.4657 117.197 53.7563C117.23 54.0469 117.174 54.3406 117.038 54.5995L115.632 57.2223C117.405 57.6174 119.246 57.5782 121.001 57.1081C121.292 57.0316 121.6 57.0472 121.882 57.1527C122.164 57.2582 122.407 57.4485 122.577 57.6973C122.746 57.9462 122.835 58.2415 122.83 58.5428C122.826 58.844 122.728 59.1365 122.551 59.38C117.914 65.7465 110.168 69.8577 102.263 69.8094C96.6447 69.7752 90.9686 67.8386 85.5007 69.1308C83.3854 69.6307 81.4088 70.5978 79.716 71.9613C78.0232 73.3249 76.6571 75.0501 75.7179 77.0105C74.7788 78.971 74.2904 81.1168 74.2886 83.2906C74.2868 85.4644 74.7716 87.6111 75.7075 89.5731C74.0278 87.7355 70.7806 88.1706 69.0624 89.9722C67.3442 91.7739 66.8994 94.4629 67.0725 96.9467C67.3372 100.746 68.8254 104.325 70.3943 107.809C57.2407 107.395 44.7995 98.1665 40.6118 85.6851C36.4065 73.1514 40.8138 58.2087 51.1474 49.9642Z" fill="#2F2E41"/>
<path opacity="0.2" d="M30.4346 172.354L39.1073 219.547L44.3112 220L30.4346 172.354Z" fill="black"/>
<path opacity="0.2" d="M125.967 168.795L117.295 219.513L112.091 220L125.967 168.795Z" fill="black"/>
<path d="M58.5444 34.0815C56.8815 34.776 55.1464 34.0149 54.4187 32.272C53.6799 30.5024 54.3699 28.7061 56.0595 28.0005C57.7491 27.2949 59.4534 28.0578 60.2041 29.8559C60.9436 31.627 60.2611 33.3646 58.5444 34.0815ZM55.359 24.5175L54.0369 25.0696C53.7066 25.2059 53.3371 25.2133 53.0017 25.0902C52.6662 24.9672 52.3891 24.7227 52.2253 24.4051L52.1599 24.2772C50.7373 21.7112 50.5744 18.5925 51.6783 15.0128C52.701 11.8016 53.1258 9.54313 52.2715 7.49711C51.2839 5.13153 49.1748 4.3905 46.4854 5.46396C45.4423 5.89957 45.1103 5.89263 44.2895 6.70705C44.1109 6.88636 43.8981 7.02788 43.6636 7.12315C43.4292 7.21842 43.178 7.2655 42.925 7.26159C42.6804 7.25871 42.4389 7.2066 42.2149 7.10836C41.9909 7.01013 41.7889 6.86778 41.6211 6.68981C41.2978 6.34683 41.1167 5.89392 41.1143 5.42255C41.1119 4.95118 41.2885 4.49647 41.6083 4.15025C42.9881 2.70573 44.6522 1.56294 46.4958 0.793978C52.2743 -1.61924 55.1833 1.94353 56.5144 5.13187C57.8165 8.25043 57.084 11.1439 55.9072 14.8913C54.921 18.0052 54.9785 20.3125 56.0987 22.6067C56.1796 22.7801 56.2246 22.9681 56.231 23.1594C56.2374 23.3506 56.2051 23.5412 56.136 23.7197C56.067 23.8982 55.9625 24.0608 55.829 24.1979C55.6955 24.335 55.5356 24.4437 55.359 24.5175Z" fill="#00A4A6"/>
<path d="M202.089 48.392H174.005C173.916 48.3926 173.828 48.3756 173.745 48.3418C173.662 48.3081 173.587 48.2584 173.524 48.1955C173.461 48.1326 173.41 48.0578 173.376 47.9755C173.342 47.8931 173.324 47.8047 173.324 47.7155C173.324 47.6263 173.342 47.5379 173.376 47.4555C173.41 47.3732 173.461 47.2984 173.524 47.2355C173.587 47.1726 173.662 47.1229 173.745 47.0892C173.828 47.0554 173.916 47.0384 174.005 47.039H202.089C202.267 47.0402 202.438 47.112 202.564 47.2387C202.69 47.3655 202.761 47.5369 202.761 47.7155C202.761 47.8941 202.69 48.0655 202.564 48.1922C202.438 48.319 202.267 48.3908 202.089 48.392Z" fill="#00A4A6"/>
<path d="M237.714 48.6175H209.63C209.541 48.6181 209.453 48.6011 209.37 48.5673C209.287 48.5336 209.212 48.4839 209.149 48.421C209.086 48.3581 209.035 48.2833 209.001 48.2009C208.967 48.1186 208.949 48.0302 208.949 47.941C208.949 47.8518 208.967 47.7634 209.001 47.681C209.035 47.5986 209.086 47.5239 209.149 47.461C209.212 47.3981 209.287 47.3484 209.37 47.3146C209.453 47.2809 209.541 47.2639 209.63 47.2645H237.714C237.803 47.2639 237.891 47.2809 237.974 47.3146C238.057 47.3484 238.132 47.3981 238.195 47.461C238.258 47.5239 238.309 47.5986 238.343 47.681C238.377 47.7634 238.395 47.8518 238.395 47.941C238.395 48.0302 238.377 48.1186 238.343 48.2009C238.309 48.2833 238.258 48.3581 238.195 48.421C238.132 48.4839 238.057 48.5336 237.974 48.5673C237.891 48.6011 237.803 48.6181 237.714 48.6175Z" fill="#00A4A6"/>
<path d="M273.339 48.843H245.256C245.077 48.8418 244.906 48.77 244.78 48.6432C244.655 48.5165 244.584 48.3451 244.584 48.1665C244.584 47.9879 244.655 47.8165 244.78 47.6897C244.906 47.563 245.077 47.4912 245.256 47.49H273.339C273.429 47.4894 273.517 47.5064 273.6 47.5401C273.682 47.5739 273.757 47.6236 273.821 47.6865C273.884 47.7494 273.934 47.8242 273.968 47.9065C274.003 47.9889 274.02 48.0773 274.02 48.1665C274.02 48.2557 274.003 48.3441 273.968 48.4265C273.934 48.5088 273.884 48.5836 273.821 48.6465C273.757 48.7094 273.682 48.7591 273.6 48.7928C273.517 48.8266 273.429 48.8436 273.339 48.843Z" fill="#00A4A6"/>
<path d="M308.965 49.0685H280.882C280.703 49.0673 280.532 48.9955 280.406 48.8687C280.281 48.742 280.21 48.5706 280.21 48.392C280.21 48.2134 280.281 48.042 280.406 47.9152C280.532 47.7885 280.703 47.7167 280.882 47.7155H308.965C309.144 47.7167 309.315 47.7885 309.441 47.9152C309.567 48.042 309.637 48.2134 309.637 48.392C309.637 48.5706 309.567 48.742 309.441 48.8687C309.315 48.9955 309.144 49.0673 308.965 49.0685Z" fill="#00A4A6"/>
<path d="M187.985 42.1659C190.868 42.1659 193.205 39.8288 193.205 36.9457C193.205 34.0627 190.868 31.7255 187.985 31.7255C185.102 31.7255 182.766 34.0627 182.766 36.9457C182.766 39.8288 185.102 42.1659 187.985 42.1659Z" fill="#00A4A6"/>
<path d="M223.826 42.1659C226.709 42.1659 229.046 39.8288 229.046 36.9457C229.046 34.0627 226.709 31.7255 223.826 31.7255C220.943 31.7255 218.606 34.0627 218.606 36.9457C218.606 39.8288 220.943 42.1659 223.826 42.1659Z" fill="#00A4A6"/>
<path d="M259.667 42.1659C262.549 42.1659 264.886 39.8288 264.886 36.9457C264.886 34.0627 262.549 31.7255 259.667 31.7255C256.784 31.7255 254.447 34.0627 254.447 36.9457C254.447 39.8288 256.784 42.1659 259.667 42.1659Z" fill="#00A4A6"/>
<path d="M295.508 42.1659C298.39 42.1659 300.727 39.8288 300.727 36.9457C300.727 34.0627 298.39 31.7255 295.508 31.7255C292.625 31.7255 290.288 34.0627 290.288 36.9457C290.288 39.8288 292.625 42.1659 295.508 42.1659Z" fill="#00A4A6"/>
</g>
<defs>
<clipPath id="clip0_154_1488">
<rect width="331" height="220" fill="white"/>
</clipPath>
</defs>
</svg>
