<svg width="195" height="178" viewBox="0 0 195 178" fill="none" xmlns="http://www.w3.org/2000/svg">
<path d="M179.226 19.8711H164.275V146.959C164.275 148.953 163.881 150.928 163.116 152.77C162.35 154.612 161.228 156.286 159.814 157.696C158.4 159.106 156.721 160.224 154.874 160.987C153.026 161.75 151.045 162.143 149.046 162.143H34.7363V162.288C34.7363 164.282 35.1302 166.257 35.8956 168.099C36.6609 169.941 37.7827 171.615 39.1969 173.025C40.6111 174.435 42.2899 175.553 44.1376 176.316C45.9854 177.079 47.9657 177.472 49.9657 177.472H179.226C181.226 177.472 183.206 177.079 185.054 176.316C186.902 175.553 188.581 174.435 189.995 173.025C191.409 171.615 192.531 169.941 193.296 168.099C194.062 166.257 194.456 164.282 194.456 162.288V35.055C194.456 31.028 192.851 27.1659 189.995 24.3184C187.139 21.4709 183.265 19.8711 179.226 19.8711Z" fill="#F2F2F2"/>
<path d="M144.49 0H15.2293C6.81841 0 0 6.79805 0 15.1839V142.417C0 150.803 6.81841 157.601 15.2293 157.601H144.49C152.901 157.601 159.719 150.803 159.719 142.417V15.1839C159.719 6.79805 152.901 0 144.49 0Z" fill="#F2F2F2"/>
<path d="M15.2292 3.12253C13.6406 3.12253 12.0675 3.43449 10.5998 4.04063C9.13204 4.64677 7.79843 5.5352 6.67508 6.6552C5.55173 7.77519 4.66064 9.10481 4.05269 10.5682C3.44473 12.0315 3.13184 13.5999 3.13184 15.1838V142.417C3.13184 145.616 4.40638 148.684 6.67508 150.946C8.94379 153.208 12.0208 154.479 15.2292 154.479H97.7264C105.456 154.479 113.11 152.961 120.251 150.011C127.393 147.062 133.881 142.74 139.347 137.29C144.813 131.841 149.148 125.371 152.106 118.251C155.064 111.132 156.587 103.5 156.587 95.7938V15.1838C156.587 13.5999 156.274 12.0315 155.666 10.5682C155.058 9.10481 154.167 7.77519 153.044 6.6552C151.92 5.5352 150.587 4.64677 149.119 4.04063C147.651 3.43449 146.078 3.12253 144.49 3.12253H15.2292Z" fill="white"/>
<path d="M115.994 41.7357H43.4428C42.777 41.7357 42.1386 41.472 41.6678 41.0027C41.1971 40.5334 40.9326 39.8968 40.9326 39.2331C40.9326 38.5693 41.1971 37.9328 41.6678 37.4634C42.1386 36.9941 42.777 36.7304 43.4428 36.7304H115.994C116.66 36.7304 117.298 36.9941 117.769 37.4634C118.24 37.9328 118.504 38.5693 118.504 39.2331C118.504 39.8968 118.24 40.5334 117.769 41.0027C117.298 41.472 116.66 41.7357 115.994 41.7357Z" fill="#00A4A6"/>
<path d="M115.994 95.1039H43.4428C42.777 95.1039 42.1386 94.8402 41.6678 94.3709C41.1971 93.9016 40.9326 93.265 40.9326 92.6013C40.9326 91.9375 41.1971 91.301 41.6678 90.8316C42.1386 90.3623 42.777 90.0986 43.4428 90.0986H115.994C116.66 90.0986 117.298 90.3623 117.769 90.8316C118.24 91.301 118.504 91.9375 118.504 92.6013C118.504 93.265 118.24 93.9016 117.769 94.3709C117.298 94.8402 116.66 95.1039 115.994 95.1039Z" fill="#00A4A6"/>
<path d="M145.455 68.4373H13.9808C13.3151 68.4373 12.6766 68.1736 12.2059 67.7043C11.7352 67.235 11.4707 66.5984 11.4707 65.9346C11.4707 65.2709 11.7352 64.6343 12.2059 64.165C12.6766 63.6957 13.3151 63.432 13.9808 63.432H145.455C146.121 63.432 146.759 63.6957 147.23 64.165C147.701 64.6343 147.965 65.2709 147.965 65.9346C147.965 66.5984 147.701 67.235 147.23 67.7043C146.759 68.1736 146.121 68.4373 145.455 68.4373Z" fill="#F2F2F2"/>
<path d="M162.66 120.98H55.0344C52.6935 120.98 50.4485 121.908 48.7932 123.558C47.1379 125.208 46.208 127.447 46.208 129.781C46.208 132.114 47.1379 134.353 48.7932 136.003C50.4485 137.653 52.6935 138.581 55.0344 138.581H162.66C165.001 138.581 167.246 137.653 168.901 136.003C170.556 134.353 171.486 132.114 171.486 129.781C171.486 127.447 170.556 125.208 168.901 123.558C167.246 121.908 165.001 120.98 162.66 120.98Z" fill="white"/>
<path d="M162.66 139.148H55.0345C52.5426 139.148 50.1527 138.161 48.3907 136.405C46.6286 134.648 45.6387 132.265 45.6387 129.781C45.6387 127.296 46.6286 124.913 48.3907 123.156C50.1527 121.4 52.5426 120.413 55.0345 120.413H162.66C165.152 120.413 167.542 121.4 169.304 123.156C171.066 124.913 172.056 127.296 172.056 129.781C172.056 132.265 171.066 134.648 169.304 136.405C167.542 138.161 165.152 139.148 162.66 139.148ZM55.0345 121.548C52.8447 121.548 50.7445 122.416 49.196 123.959C47.6475 125.503 46.7776 127.597 46.7776 129.781C46.7776 131.964 47.6475 134.058 49.196 135.602C50.7445 137.145 52.8447 138.013 55.0345 138.013H162.66C164.85 138.013 166.95 137.145 168.499 135.602C170.047 134.058 170.917 131.964 170.917 129.781C170.917 127.597 170.047 125.503 168.499 123.959C166.95 122.416 164.85 121.548 162.66 121.548H55.0345Z" fill="#00A4A6"/>
<path d="M169.007 159.384H121.511C120.845 159.384 120.207 159.121 119.736 158.651C119.265 158.182 119.001 157.545 119.001 156.882C119.001 156.218 119.265 155.581 119.736 155.112C120.207 154.643 120.845 154.379 121.511 154.379H169.007C169.672 154.379 170.311 154.643 170.782 155.112C171.252 155.581 171.517 156.218 171.517 156.882C171.517 157.545 171.252 158.182 170.782 158.651C170.311 159.121 169.672 159.384 169.007 159.384Z" fill="#00A4A6"/>
</svg>
